<svg width="29" height="24" viewBox="0 0 29 24" fill="none" xmlns="http://www.w3.org/2000/svg">
<path d="M27.2993 10.9243H26.8793L25.6293 16.4243H10.6293L6.05931 1.9543C6.00987 1.80076 5.92403 1.66146 5.80911 1.54827C5.69418 1.43509 5.55358 1.35139 5.39931 1.3043L1.2993 0.0443033C1.17324 0.0055633 1.04077 -0.00796612 0.909473 0.00448735C0.778176 0.0169408 0.650616 0.0551333 0.534079 0.116884C0.298721 0.241596 0.122544 0.454696 0.0443047 0.709303C-0.0339341 0.963911 -0.00782592 1.23917 0.116886 1.47453C0.241597 1.70989 0.454697 1.88606 0.709305 1.9643L4.2993 3.0643L8.88931 17.5643L7.2493 18.9043L7.1193 19.0343C6.71364 19.5018 6.48371 20.0961 6.4691 20.7149C6.4545 21.3337 6.65615 21.9382 7.0393 22.4243C7.31186 22.7558 7.65821 23.0188 8.05064 23.1925C8.44308 23.3661 8.8707 23.4455 9.2993 23.4243H25.9893C26.2545 23.4243 26.5089 23.3189 26.6964 23.1314C26.8839 22.9439 26.9893 22.6895 26.9893 22.4243C26.9893 22.1591 26.8839 21.9047 26.6964 21.7172C26.5089 21.5297 26.2545 21.4243 25.9893 21.4243H9.13931C9.02415 21.4204 8.91196 21.3868 8.81356 21.3269C8.71517 21.2669 8.6339 21.1826 8.5776 21.0821C8.5213 20.9815 8.49188 20.8682 8.49218 20.753C8.49248 20.6377 8.52249 20.5245 8.5793 20.4243L10.9893 18.4243H26.4293C26.6605 18.43 26.8864 18.3553 27.0688 18.2131C27.2511 18.0709 27.3785 17.8699 27.4293 17.6443L28.9993 10.7343C28.4417 10.8622 27.8714 10.9259 27.2993 10.9243Z" fill="black"/>
</svg>
